<?xml version="1.0" standalone="no"?>
<!DOCTYPE svg PUBLIC "-//W3C//DTD SVG 20010904//EN"
 "http://www.w3.org/TR/2001/REC-SVG-20010904/DTD/svg10.dtd">
<svg version="1.0" xmlns="http://www.w3.org/2000/svg"
 width="340.000000pt" height="340.000000pt" viewBox="0 0 340.000000 340.000000"
 preserveAspectRatio="xMidYMid meet">
<metadata>
Created by potrace 1.11, written by Peter Selinger 2001-2013
</metadata>
<g transform="translate(0.000000,340.000000) scale(0.100000,-0.100000)"
fill="#000000" stroke="none">
<path d="M2053 3243 c-33 -6 -28 -23 7 -23 17 0 30 -4 30 -10 0 -8 -26 -7 -80
3 -3 0 -21 -6 -40 -15 -34 -14 -105 -14 -115 2 -5 8 -66 -2 -97 -15 -11 -4
-18 -3 -18 4 0 7 -7 7 -25 -1 -13 -6 -22 -14 -20 -18 3 -4 -23 -18 -58 -30
-34 -12 -64 -26 -67 -30 -7 -10 -74 -45 -82 -42 -4 1 -9 -7 -13 -16 -3 -10
-19 -32 -37 -48 -17 -16 -27 -23 -23 -15 6 10 4 12 -4 7 -7 -5 -10 -14 -7 -22
3 -8 0 -13 -7 -11 -7 1 -11 -6 -11 -15 1 -10 -2 -15 -7 -13 -4 3 -13 -4 -19
-15 -11 -20 -9 -20 239 -20 l251 0 -6 28 c-5 31 20 103 53 147 20 28 44 31 27
4 -11 -19 -14 -59 -4 -59 13 0 6 -27 -13 -48 -21 -23 -22 -58 -1 -66 9 -3 141
-6 295 -6 l279 0 0 -810 0 -810 -27 0 c-16 0 -178 0 -360 0 -183 0 -344 -2
-357 -6 l-25 -6 25 -26 c14 -15 36 -47 50 -72 17 -31 42 -56 81 -80 31 -19 61
-39 67 -45 25 -24 64 -43 96 -48 54 -8 65 -15 83 -52 15 -32 37 -47 37 -26 0
32 119 -67 161 -133 16 -26 19 -28 25 -12 4 10 -1 34 -10 54 -9 21 -11 30 -4
22 13 -15 80 -22 71 -8 -2 5 -9 8 -16 8 -17 0 -67 52 -67 71 0 9 8 19 19 22
12 3 21 17 25 41 4 20 11 34 17 31 5 -4 9 1 9 10 0 9 5 13 10 10 6 -4 8 -14 6
-23 -3 -10 7 -31 24 -51 17 -18 30 -43 30 -55 0 -11 3 -30 6 -41 4 -15 -2 -25
-20 -34 -13 -8 -22 -19 -20 -26 3 -6 -11 -35 -31 -64 -19 -29 -35 -65 -35 -80
0 -15 -6 -33 -12 -40 -29 -31 22 5 67 48 44 41 47 42 60 25 13 -18 14 -18 15
-1 0 11 8 17 21 17 13 0 19 -5 16 -13 -3 -7 1 -21 9 -32 13 -18 14 -18 14 4 0
21 1 21 16 6 9 -9 20 -31 24 -48 l8 -32 1 32 c1 26 4 30 22 26 16 -4 20 -12
17 -37 -2 -25 2 -33 25 -44 15 -7 27 -18 28 -25 0 -7 4 -3 8 8 7 17 9 15 16
-14 4 -19 14 -41 21 -49 8 -7 14 -21 14 -30 0 -13 2 -14 8 -4 10 15 31 -6 53
-52 22 -47 41 -53 71 -23 14 14 24 28 22 30 -2 2 -11 42 -19 89 -8 46 -23 104
-34 128 -10 24 -17 49 -14 56 2 7 -2 25 -11 42 -14 28 -43 131 -50 182 -11 76
-15 183 -6 165 8 -17 9 -15 5 10 -2 17 -7 51 -11 77 -10 74 -26 45 -24 -41 3
-93 2 -100 -10 -81 -7 11 -8 6 -4 -17 3 -17 2 -39 -3 -48 -7 -12 -10 -3 -12
35 -1 28 -2 54 -3 58 -4 19 16 129 26 141 8 10 11 104 11 305 0 642 -59 1055
-194 1350 -65 143 -167 251 -278 295 -18 8 -30 17 -28 21 3 5 0 12 -6 16 -8 4
-9 3 -5 -4 4 -7 5 -12 3 -12 -11 0 -91 50 -82 51 6 0 1 4 -10 9 -21 9 -46 10
-82 3z m117 -49 l35 -14 -40 6 c-22 3 -44 10 -49 15 -14 13 13 10 54 -7z m518
-2233 c7 -40 8 -70 2 -80 -8 -13 -9 -12 -10 6 0 12 -6 26 -13 30 -9 5 -11 26
-9 67 5 70 15 63 30 -23z m-21 -108 c-3 -10 -5 -4 -5 12 0 17 2 24 5 18 2 -7
2 -21 0 -30z m43 -14 c0 -6 -4 -7 -10 -4 -5 3 -10 11 -10 16 0 6 5 7 10 4 6
-3 10 -11 10 -16z m75 -140 l5 -54 -14 50 c-8 28 -15 59 -15 70 -1 40 18 -10
24 -66z m-58 29 c-3 -7 -5 -2 -5 12 0 14 2 19 5 13 2 -7 2 -19 0 -25z m70
-110 c-3 -8 -6 -5 -6 6 -1 11 2 17 5 13 3 -3 4 -12 1 -19z"/>
<path d="M1686 3218 c3 -4 -4 -6 -14 -5 -25 1 -162 -91 -162 -109 0 -9 -4 -13
-9 -9 -5 3 -12 1 -15 -4 -14 -21 25 -3 44 21 18 23 70 46 93 40 5 -2 6 2 2 8
-4 7 2 9 21 4 17 -5 25 -3 21 3 -4 6 0 16 8 23 8 7 15 9 15 5 0 -4 7 -2 15 5
10 8 39 12 75 11 38 -1 60 2 60 9 0 8 -26 10 -79 8 -44 -2 -77 -6 -75 -10z"/>
<path d="M1457 2882 l-107 -3 -15 -29 c-13 -26 -16 -129 -19 -760 -1 -402 0
-748 4 -768 l7 -37 11 28 c15 34 37 36 28 2 -6 -24 -5 -25 35 -21 23 2 44 8
48 14 5 8 15 7 35 -3 16 -8 30 -15 31 -15 2 0 -6 17 -16 37 -27 53 -26 70 4
50 22 -14 23 -13 25 10 4 48 15 45 83 -23 l70 -69 389 -3 390 -3 0 796 0 795
-271 0 c-305 0 -302 1 -183 -65 81 -46 171 -120 206 -171 31 -45 98 -205 103
-248 2 -16 9 -34 14 -39 6 -6 11 -24 11 -39 0 -26 -3 -28 -37 -27 -21 0 -60 4
-88 7 l-50 7 51 33 c28 17 59 32 70 32 16 1 17 2 3 10 -10 6 -31 4 -60 -5 -24
-8 -69 -21 -99 -30 -30 -8 -59 -19 -65 -23 -17 -12 -55 -101 -55 -128 0 -24 1
-24 31 11 27 31 76 65 93 65 3 0 -11 -15 -29 -34 -45 -43 -44 -54 1 -27 20 12
37 21 38 19 1 -2 7 -15 14 -30 16 -39 62 -41 94 -5 15 16 18 18 14 5 -3 -10 1
-18 12 -21 12 -3 7 -9 -18 -21 l-35 -16 75 2 75 3 22 -85 c30 -110 25 -178
-16 -266 -17 -36 -31 -81 -31 -99 0 -34 -41 -123 -76 -164 -22 -26 -117 -102
-184 -146 -25 -16 -48 -33 -51 -38 -3 -4 -33 -13 -67 -19 -51 -10 -71 -9 -120
5 -81 22 -210 98 -265 154 -102 106 -124 154 -156 348 -12 72 -27 155 -33 187
-11 60 3 319 24 428 18 96 66 206 113 258 46 51 76 67 190 101 80 24 138 57
115 65 -19 7 -248 12 -383 8z m7 -57 c-9 -14 -18 -25 -21 -25 -5 0 5 18 20 38
17 22 18 13 1 -13z m713 -551 c-3 -3 -12 -4 -19 -1 -8 3 -5 6 6 6 11 1 17 -2
13 -5z m-767 -425 c0 -17 -4 -28 -10 -24 -5 3 -10 17 -10 31 0 13 5 24 10 24
6 0 10 -14 10 -31z m-10 -279 c0 -20 -2 -22 -10 -10 -5 8 -10 26 -10 40 0 20
2 22 10 10 5 -8 10 -26 10 -40z m-40 5 c0 -8 -2 -15 -4 -15 -2 0 -6 7 -10 15
-3 8 -1 15 4 15 6 0 10 -7 10 -15z m22 -66 c5 -29 4 -30 -9 -14 -14 21 -18 59
-4 51 5 -3 11 -20 13 -37z"/>
<path d="M1272 2700 c-28 -77 -52 -172 -46 -181 2 -4 -7 -36 -20 -72 -74 -196
-110 -427 -86 -549 6 -35 13 -111 15 -170 2 -59 6 -112 10 -119 4 -6 9 -35 10
-63 1 -28 5 -69 9 -91 6 -29 5 -36 -3 -25 -6 8 -13 34 -17 58 -3 23 -10 42
-14 42 -4 0 -13 -19 -20 -42 -7 -24 -21 -60 -32 -82 -11 -21 -15 -35 -9 -31 6
3 11 2 11 -4 0 -23 -21 -62 -69 -125 -28 -37 -47 -64 -41 -61 5 3 10 2 10 -2
0 -9 -92 -67 -125 -79 -11 -4 -32 -15 -46 -25 -14 -10 -29 -16 -33 -12 -3 3
-6 1 -6 -5 0 -7 1 -12 3 -12 23 3 136 39 122 40 -30 1 53 37 90 38 42 2 111
29 107 42 -4 16 46 36 59 23 8 -8 3 -16 -20 -27 -17 -9 -31 -19 -31 -21 0 -7
47 13 76 32 25 16 27 16 40 -2 8 -10 14 -16 14 -12 0 16 62 -25 69 -46 9 -22
9 -21 20 6 12 30 20 33 40 14 11 -10 11 -8 2 10 -15 30 -14 59 5 94 18 35 12
49 -14 32 -13 -8 -22 -7 -35 2 -16 11 -17 70 -19 751 l-3 739 -23 -65z m-52
-1165 c0 -11 -4 -25 -8 -32 -4 -6 -7 8 -7 32 0 24 3 38 7 32 4 -7 8 -21 8 -32z
m88 -376 c-3 -8 -7 -3 -11 10 -4 17 -3 21 5 13 5 -5 8 -16 6 -23z"/>
<path d="M1520 2353 c-55 -20 -80 -37 -80 -55 0 -18 3 -18 33 8 19 16 42 34
53 41 20 13 18 15 -6 6z"/>
<path d="M1649 2320 l34 -29 -39 -7 c-45 -8 -85 -26 -103 -47 -7 -9 -21 -13
-34 -9 -21 5 -21 4 -4 -15 9 -11 17 -24 17 -30 0 -14 31 -39 58 -46 19 -4 21
-3 12 8 -9 11 -7 22 11 47 21 29 24 30 27 13 6 -30 33 -56 56 -53 12 2 27 17
36 35 15 32 16 32 44 18 16 -9 31 -13 34 -10 3 3 0 5 -6 5 -7 0 -12 5 -12 12
0 6 -8 20 -17 31 -17 19 -17 20 4 8 26 -13 36 -14 28 -2 -3 5 4 16 16 24 l21
15 -25 17 c-28 18 -127 44 -167 44 -25 0 -25 0 9 -29z"/>
<path d="M2035 1910 c3 -5 0 -10 -8 -10 -7 0 -24 -11 -37 -25 -14 -15 -35 -25
-52 -25 -15 0 -28 -4 -28 -8 0 -17 25 -32 55 -32 33 0 115 34 127 53 12 19 9
37 -7 37 -8 0 -15 5 -15 10 0 6 -9 10 -21 10 -11 0 -17 -4 -14 -10z"/>
<path d="M1844 1892 c-6 -4 -13 -14 -16 -22 -5 -12 2 -15 33 -12 44 5 45 5 23
26 -17 18 -24 19 -40 8z"/>
<path d="M1890 1670 l-165 -5 94 -7 c164 -14 325 -10 347 7 17 14 14 15 -46
13 -36 -2 -139 -5 -230 -8z"/>
<path d="M1950 1571 c-59 -5 -62 -7 -31 -14 30 -6 111 7 111 18 0 3 -3 4 -7 3
-5 -1 -37 -4 -73 -7z"/>
<path d="M1530 1271 c0 -5 12 -17 28 -26 l27 -18 -24 27 c-26 28 -31 31 -31
17z"/>
<path d="M1660 1186 c28 -17 50 -21 35 -7 -6 5 -21 12 -35 15 l-25 7 25 -15z"/>
<path d="M928 1093 c7 -3 16 -2 19 1 4 3 -2 6 -13 5 -11 0 -14 -3 -6 -6z"/>
<path d="M2784 884 c3 -9 6 -24 6 -35 0 -24 29 -52 112 -108 l63 -43 -70 66
c-38 36 -65 66 -58 66 6 0 15 -5 18 -11 4 -6 13 -8 20 -5 8 3 32 -15 54 -41
23 -25 41 -41 41 -36 0 5 -26 34 -57 64 -92 89 -144 122 -129 83z"/>
</g>
</svg>
